<svg xmlns="http://www.w3.org/2000/svg" version="1.1" xmlns:xlink="http://www.w3.org/1999/xlink" width="512" height="512" x="0" y="0" viewBox="0 0 512 512" style="enable-background:new 0 0 512 512" xml:space="preserve" class=""><g><path d="M446.575 512H65.425C29.35 512 0 482.65 0 446.575V65.425C0 29.35 29.35 0 65.425 0h381.15C482.65 0 512 29.35 512 65.425v381.149C512 482.65 482.65 512 446.575 512z" style="" fill="#ebf0fa" data-original="#ebf0fa" class=""></path><path d="M446.575 0H256.004v512h190.571C482.65 512 512 482.65 512 446.575V65.425C512 29.35 482.65 0 446.575 0z" style="" fill="#dce1eb" data-original="#dce1eb" class=""></path><path d="m410.155 191.597-.078-.098a39.98 39.98 0 0 0-28.942-14.701c-11.268-.57-22.317 3.672-30.295 11.662L212.833 326.68l-51.59-42.839a39.85 39.85 0 0 0-51.373.308l-.094.081L0 379.215v67.358c0 36.076 29.35 65.425 65.425 65.425h381.15c36.076 0 65.425-29.349 65.425-65.425V319.154L410.155 191.597z" style="" fill="#81b8d8" data-original="#aac85a" class="" opacity="1"></path><path d="M410.077 191.5a39.98 39.98 0 0 0-28.942-14.701c-11.268-.57-22.317 3.672-30.295 11.662l-94.835 94.981V512h190.571C482.65 512 512 482.651 512 446.575V319.154L410.155 191.597l-.078-.097z" style="" fill="#0e89d0" data-original="#6eaa50" class="" opacity="1"></path><path d="M161.174 208.421c-40.095 0-72.713-32.619-72.713-72.713s32.619-72.713 72.713-72.713 72.713 32.62 72.713 72.713-32.618 72.713-72.713 72.713z" style="" fill="#81b8d8" data-original="#aac85a" class="" opacity="1"></path></g></svg>