<svg viewBox="0 0 512 512" xmlns="http://www.w3.org/2000/svg"><g id="Welcome_party_with_friends" data-name="Welcome party with friends"><path d="m183.41 107.9 3-11.61s1.7-6.64 4.16-9.28 2.63-7.44 4.37-9.18 2.76 5.47 1.18 10.12 4.49-3.2 5.56-7 3.14-9.57 4.63-8.89-.58 11.48-.58 11.48 2.5-11 4.39-10.69.45 12.06.45 12.06 2.18-8.24 4.21-8.81a.43.43 0 0 1 .23 0c1.77.41 1.95 10.77-1.2 18.72a29.8 29.8 0 0 1 -8.29 11.49l-2.52 9.76z" fill="#ff83df"/><path d="m95.9 102s23.24-1.54 32 4.2 31.86 54 31.86 54l25-58.41 43 17.44s-28.41 94.63-36.64 103.13-29.28 4.78-29.28 4.78z" fill="#ffc700"/><path d="m395.7 90.3c7-.58 18.12-.33 27.33 6.47 6.53 4.8 9.24 10.78 12 16.43 10.58 22 25 42 36.54 63.53s-4.4 32.18-36.36 34.16-30.56-31.77-30.56-31.77z" fill="#ff9100"/><path d="m463.28 113.2 13.19 8.51c.38 2.42.69 5 .9 7.62a100.77 100.77 0 0 1 -.95 23.8l-20.51-25.69z" fill="#f7e00b"/><path d="m446 100.25s-10 .8-9.56 3.59 8.56 2.86 8.56 2.86z" fill="#ff59cf"/><path d="m329 110.39c-7.5 16.32-14.31 65.55-14.31 65.55l43.31-83.2s-21.49 1.34-29 17.65z" fill="#ff9100"/><path d="m127.82 451.1-5.93 40.56h79.73a40.15 40.15 0 0 0 -24-15.77c-16.28-3.66-23.62-18.44-23.62-18.44z" fill="#ffc700"/><path d="m53.67 429.17-21.94 31.7 30 22.61a40.58 40.58 0 0 0 24.44 8.18h19.37s.57-8.23-13.45-18.59-16.46-26.83-12.8-39z" fill="#ffc700"/><path d="m37.61 452.38-7.67 10.32s27.7 23.7 38.69 28 36.9 2.59 36.9 2.59a.85.85 0 0 0 0-1.67l-24.45-3.1a36.55 36.55 0 0 1 -18.59-8l-14.87-12.18a16.29 16.29 0 0 0 -10.01-15.96z" fill="#00e4e0"/><path d="m123.55 480.32-2.4 13.36h80.47a1 1 0 0 0 0-2q-22.71-1.07-46.31-3.06-5.62-.48-11.19-1a16.53 16.53 0 0 0 -20.57-7.27z" fill="#00e4e0"/><path d="m65 440.93c-2.88 10 .21 20.28 7.54 25.75 6.74 5 14.55 4.09 16.48 3.81a38.79 38.79 0 0 1 -4.85-6.17 40.21 40.21 0 0 1 -6-18.21z" fill="#ff9100"/><path d="m152 466.47a27.58 27.58 0 0 0 10.74 11.87c7.62 4.42 17.54-1.78 17.54-1.78a38.93 38.93 0 0 1 -16.57-8.13z" fill="#ff9100"/><path d="m83 107.5a10.3 10.3 0 0 0 16.7-1.33l-4.4-20.74-10.17.57z" fill="#ff83df"/><path d="m84.73 89.83.27-2.83 10.49-.55 2.21 10.55a11 11 0 0 1 -5.12 0c-5.27-1.42-7.53-6.43-7.85-7.17z" fill="#ff59cf"/><circle cx="90.3" cy="75.73" fill="#ff83df" r="12.11"/><path d="m90.3 75.73 11.92-2c.33 2.31.58 4.3.76 5.87.52 4.51.51 5.72.17 7.13a9.29 9.29 0 0 1 -2 4.12c-3 3.4-9.21 3-13.21 1.33a15.13 15.13 0 0 1 -7.3-7 70.63 70.63 0 0 1 -2.32-7.47z" fill="#ff83df"/><path d="m98.69 85.6-6.3.15a5.92 5.92 0 0 0 3.49 1.81 2.64 2.64 0 0 0 2-.38 2.37 2.37 0 0 0 .81-1.58z" fill="#fff3ff"/><path d="m82.48 81.28s8.71-4.16 5.36-14.9c0 0 13.83-1.65 14.57 9.35 0 0 6.08-9.35 0-15.46s-19.2 1.38-19.2 1.38-14.09-2.58-16.46 7.92 17.25 27.48 17.25 27.48 2.48-8.76-1.52-15.77z" fill="#570b7f"/><ellipse cx="81.39" cy="81.63" fill="#ff83df" rx="4.31" ry="5.6" transform="matrix(.854 -.52 .52 .854 -30.58 54.24)"/><path d="m151.09 206s25.27 73.1 33.74 113.24-6.13 152.12-6.13 152.12a273.2 273.2 0 0 1 -28.89-4.44 277.75 277.75 0 0 1 -27.92-7.39q6.24-63 12.47-125.92l-28.83-109.31z" fill="#00e4e0"/><path d="m80 213.44-5.37 114.27-33.45 109.87 56.19 17.25s39.78-127.12 39.38-150.78-14.86-82-14.86-82z" fill="#00e4e0"/><path d="m57.08 440.89h-.15a.51.51 0 0 1 -.33-.63l33.81-107.1a38.68 38.68 0 0 0 1.76-10.31l2.12-64.22a.5.5 0 0 1 1 0l-2.12 64.23a39.37 39.37 0 0 1 -1.81 10.57l-33.81 107.11a.49.49 0 0 1 -.47.35z" fill="#570b7f"/><path d="m62.46 136.7a281.46 281.46 0 0 1 9 75.58 280.17 280.17 0 0 1 -7.93 61.5 108.17 108.17 0 0 0 58.36 7.22 204 204 0 0 0 -1.55-98 203 203 0 0 0 -37.34-74.1z" fill="#ffc700"/><path d="m100.23 108 72.94 162.23s13.83-2.23 21.45-13.82l-50.62-91.77-22.09-43.35z" fill="#ffc700"/><path d="m83.27 103.36a14.32 14.32 0 0 0 6 2.87c2 .43 4.23.94 6.41-.29a7.33 7.33 0 0 0 3.18-4.1 362.41 362.41 0 0 1 25.7 39.5c5.53 9.84 10.26 19.35 14.32 28.35-9 4.41-18.67 9.05-18.89 8.59 0-.51-41.85-72.34-41.85-72.34z" fill="#8f00cd"/><path d="m109.17 148.8c-8.83-17-25.9-45.44-25.9-45.44l-8.86 10.49 25.82 57.15 20.11 12a117.43 117.43 0 0 0 -11.17-34.2z" fill="#ffc700"/><path d="m98.81 101.84 25.7 39.5s-3.87-16.06-5.34-19.35a4.84 4.84 0 0 0 -5-2.75 4.66 4.66 0 0 0 1.33-3.15 5.72 5.72 0 0 0 -1.94-3.81c-4-4.19-10.69-9.68-11.68-10.5z" fill="#fff3ff"/><path d="m132.94 321h-.08a.5.5 0 0 1 -.41-.58l3.5-20.91a22.89 22.89 0 0 0 .3-3.7v-58.3a.5.5 0 0 1 .5-.5.5.5 0 0 1 .5.5v58.26a22.8 22.8 0 0 1 -.32 3.87l-3.5 20.91a.49.49 0 0 1 -.49.45z" fill="#570b7f"/><path d="m136.76 461.46h-.06a.5.5 0 0 1 -.44-.55l12.63-120a27.38 27.38 0 0 0 -1.36-11.75l-11.25-32.16a.5.5 0 1 1 .95-.33l11.24 32.18a28.15 28.15 0 0 1 1.41 12.15l-12.63 120a.49.49 0 0 1 -.49.46z" fill="#570b7f"/><path d="m148.44 135.91q3.6-5.67 7.21-11.32c1.38-.92 11.84-7.75 19.72-4.18a9.12 9.12 0 0 1 4 3.18c2.88 4.29.46 9.79.2 10.36-2.59 5.65-8.71 7-9.46 7.16l-5.36 8.61z" fill="#ff83df"/><path d="m83.27 103.36c-3.34 1-15 5.16-21.67 17-4.69 8.29-4.59 16.2-4.49 20.31.34 13.94 7 24.57 12.63 32.38 13.69 18.83 42.48 58.74 69 52.17 7-1.73 14.87-11.11 30.38-29.82 12.18-14.68 21.59-27.45 28.05-36.58l-46.24-26.57q-13.93 19.17-27.76 38.34l-37.56-44.81z" fill="#ffc700"/><path d="m72.52 64.6s-13.6-4.6-15.67 6.66-3.18 16 2.66 19.66-13.16 5.61-11.51 14.19 20 12.27 26.46 4.73a14.33 14.33 0 0 0 -.74-20.11c-4.29-3.69-.15-17.14-.15-17.14z" fill="#570b7f"/><path d="m81.15 104.09s8.46 25.51 9.18 27.49 5.41.61 5.41.61-.5 6.75 1.64 8.29 11.79 8.32 11.79 8.32q-4.4-9-9.66-18.59c-5.36-9.7-10.83-18.64-16.24-26.85z" fill="#fff3ff"/><path d="m83.21 84.85a1.73 1.73 0 0 1 -.38 0c-1.06-.25-2.26-1.52-2.1-2.6a1.28 1.28 0 0 1 .57-.92 1.85 1.85 0 0 1 .94-.26c-.67-.93-1.53-1.82-2.06-1.73a.42.42 0 0 0 -.32.2 2.46 2.46 0 0 0 0 1.61.5.5 0 1 1 -1 .27 3.47 3.47 0 0 1 .14-2.42 1.47 1.47 0 0 1 1-.66c1.63-.28 3.33 2.52 3.66 3.08a.5.5 0 0 1 -.57.73 2 2 0 0 0 -1.26 0 .3.3 0 0 0 -.12.22c-.06.43.67 1.33 1.34 1.49.25.06.45 0 .59-.4a.51.51 0 0 1 .63-.32.52.52 0 0 1 .32.64 1.46 1.46 0 0 1 -1.38 1.07z" fill="#570b7f"/><path d="m132.94 157.58a.55.55 0 0 1 -.3-.09.5.5 0 0 1 -.1-.7l15.46-21.18a.5.5 0 1 1 .8.59l-15.5 21.18a.49.49 0 0 1 -.36.2z" fill="#570b7f"/><path d="m127.11 225.83a.45.45 0 0 1 -.16 0 44.11 44.11 0 0 1 -5.58-2.5 78.07 78.07 0 0 1 -13.22-8.72c-10.09-8.19-38.5-40.9-38.79-41.22a.51.51 0 0 1 0-.71.49.49 0 0 1 .7 0c.29.33 28.65 33 38.67 41.1s18.41 11 18.49 11.06a.5.5 0 0 1 -.16 1z" fill="#570b7f"/><path d="m121.88 189.62a.49.49 0 0 1 -.46-.53l1.3-18.53a.49.49 0 0 1 .53-.46.5.5 0 0 1 .46.53l-1.29 18.53a.51.51 0 0 1 -.54.46z" fill="#570b7f"/><path d="m149.59 218.28a.47.47 0 0 1 -.3-.1.5.5 0 0 1 -.1-.7l43.89-58.18-24.53-15.73a.5.5 0 1 1 .54-.84l25 16a.48.48 0 0 1 .13.72l-44.22 58.63a.51.51 0 0 1 -.41.2z" fill="#570b7f"/><path d="m178.34 227.39a.51.51 0 0 1 -.44-.26l-15.28-27.71a.5.5 0 0 1 .88-.48l15.28 27.71a.51.51 0 0 1 -.2.68.53.53 0 0 1 -.24.06z" fill="#570b7f"/><path d="m140.69 146a.5.5 0 0 1 -.45-.28c-.48-1-11.92-24.2-13.61-32.43a.5.5 0 0 1 1-.2c1.67 8.1 13.41 32 13.53 32.19a.5.5 0 0 1 -.23.67.44.44 0 0 1 -.24.05z" fill="#570b7f"/><path d="m113.43 159.77a.46.46 0 0 1 -.36-.16c-.11-.11-10.56-11.35-19.68-19.16a216 216 0 0 0 -19.25-14.45.49.49 0 0 1 -.14-.69.5.5 0 0 1 .69-.14 214.71 214.71 0 0 1 19.36 14.53c9.16 7.84 19.64 19.12 19.75 19.23a.5.5 0 0 1 0 .71.48.48 0 0 1 -.37.13z" fill="#570b7f"/><path d="m390.7 93.67a11.59 11.59 0 0 1 -18.25.61l2.78-23.5 11.13-.37z" fill="#ff59cf"/><path d="m385.78 74.37.12-2.78-10.78.41-1.26 10.63a9.41 9.41 0 0 0 5.18-.16c5.23-1.77 6.65-7.68 6.74-8.1z" fill="#ff17b6"/><circle cx="379.52" cy="60.53" fill="#ff59cf" r="12.44"/><path d="m379.52 60.53-12.38-1c-.14 2.39-.22 4.45-.26 6.07-.14 4.66 0 5.9.45 7.32a9.59 9.59 0 0 0 2.35 4c3.41 3.2 9.7 2.3 13.65.2a15.66 15.66 0 0 0 6.86-7.77 75.49 75.49 0 0 0 1.72-7.85z" fill="#ff59cf"/><path d="m371.79 71.37 6.47-.4a6.11 6.11 0 0 1 -3.42 2.16 2.7 2.7 0 0 1 -2.11-.21 2.43 2.43 0 0 1 -.94-1.55z" fill="#fff3ff"/><path d="m385 448.62 5.71 45.06h-70.16a37.76 37.76 0 0 1 12.36-16c6.48-4.67 11-4.33 16.33-8.77 3.7-3.07 8.2-8.78 10-20.31z" fill="#570b7f"/><path d="m401.16 448.62-5.72 45.06h70.15a37.68 37.68 0 0 0 -12.36-16c-6.48-4.67-11-4.33-16.33-8.77-3.69-3.07-8.2-8.78-10-20.31z" fill="#570b7f"/><path d="m336.83 206.46s-10.18 90.9-7.31 138.19 12.27 120.13 12.27 120.13l48.91 3.22-5.94-128.63 4.4-111.9z" fill="#8f00cd"/><path d="m428.74 193.25s11.65 98.75 14.94 133.36 0 139.3 0 139.3h-50.68l-2.3-152.52-11.09-99.54z" fill="#8f00cd"/><path d="m375.18 90.3s-32.78 1.77-37.86 13.82-42.42 96.6-19.12 118.41 76.2-42 76.2-42l-21.78-39.53-20.11 15.74 14.11-34.11z" fill="#ff9100"/><path d="m375.78 90.3s27.85-2 38 8 24.5 138.52 24.5 138.52a140.23 140.23 0 0 1 -62.43 10.18 138.79 138.79 0 0 1 -43.32-10.15q1.79-45.72 3.58-91.42l20.32-41.33z" fill="#ff9100"/><path d="m381.17 90.3s34.22-2.3 45.22 10.7 35.21 64.8 34.61 85.84-19.42 28.2-43 21.78l-10.15-66.7z" fill="#ff9100"/><path d="m332.53 232.93-.1 17.17a164.77 164.77 0 0 0 108.83-2.75l-3.42-14.42s-23.17 7.54-54.54 8.13-50.77-8.13-50.77-8.13z" fill="#f7e00b"/><path d="m367.57 91.06s1.17 6.8 12.59 7.37 15.54-8.13 15.54-8.13l-15.92-1.15z" fill="#f7e00b"/><path d="m372.94 90.14s.43 3.79 7.22 4.39a10.58 10.58 0 0 0 9.84-4.48l-5.68-4.34-9.36.9z" fill="#ff59cf"/><path d="m389.34 66.4a18.23 18.23 0 0 1 -2.48-3 18.71 18.71 0 0 1 -2.9-9.71s-6.5 2.2-10.87-.47c0 0-5.76 2.12-5.95 6.34 0 0-9.16-8.58-3.54-16.31s15.76-5.25 15.76-5.25-2.55 1.1-2.39 2.07c.08.46.76.72 1.29.88 3.82 1.15 8-.49 12.58.14a11.9 11.9 0 0 1 5.05 1.68c3.9 2.53 4.92 7.2 5.34 9.13 1.62 7.47-3.63 17.62-13.43 26.17a6.15 6.15 0 0 1 -1.8-2.56c-1-2.88.37-6.45 3.34-9.11z" fill="#570b7f"/><ellipse cx="389.16" cy="65.79" fill="#ff59cf" rx="5.76" ry="4.43" transform="matrix(.445 -.895 .895 .445 156.97 384.94)"/><path d="m387.62 69a1.37 1.37 0 0 1 -1.27-.92.5.5 0 0 1 .92-.4c.16.37.34.35.51.29.58-.19 1.16-1 1.07-1.41a.21.21 0 0 0 -.11-.16 1.71 1.71 0 0 0 -1.1.1.51.51 0 0 1 -.55-.13.51.51 0 0 1 -.08-.55c.25-.54 1.59-3.25 3.12-3.12a1.38 1.38 0 0 1 1 .54 3.28 3.28 0 0 1 .32 2.21.51.51 0 0 1 -.59.4.5.5 0 0 1 -.4-.58 2.28 2.28 0 0 0 -.13-1.43.37.37 0 0 0 -.28-.14c-.45 0-1.12.77-1.65 1.65a1.64 1.64 0 0 1 .81.17 1.22 1.22 0 0 1 .62.81 2.64 2.64 0 0 1 -1.73 2.59 1.42 1.42 0 0 1 -.48.08z" fill="#570b7f"/><path d="m317.77 493.68s1.12-6.88 7.13-7.84 10.3 2.83 27.13 3.92 16.23-8.48 25.89-9.47 11.46 2.95 11.46 2.95l1.32 10.44z" fill="#ffc700"/><path d="m468.37 493.68s-1.11-6.88-7.13-7.84-10.3 2.83-27.13 3.92-16.23-8.48-25.89-9.47-11.45 2.95-11.45 2.95l-1.33 10.44z" fill="#ffc700"/><path d="m443.76 113.2-5.47 29.9 21 56.84a65 65 0 0 0 12.28-17c2.62-5.26 4-11.87 6.7-25.06 3.15-15.2 3-19.35 1-23.45-.8-1.67-2.35-4.23-7.32-8.22s-13.86-9.91-28.19-13.01z" fill="#ff9100"/><path d="m366.82 132.62s16.86-10.2 37.94 3.36 40.38-40 40.38-40l32.86 39.02a142.26 142.26 0 0 1 -15.49 25.67c-12.51 16.5-20 26.37-31.52 28.39-17.83 3.11-28.76-16.28-44.78-10.85-6.31 2.14-10.33 7.05-12.58 10.46q-3.38-28.02-6.81-56.05z" fill="#fff3ff"/><path d="m343.53 160.31 7.7-5.16a61.14 61.14 0 0 1 3.77-7.38c2.23-3.7 3.39-5.58 5.57-6.8 1.22-.68 3.07-.87 6.72-1.23 9.6-.94 11.47.31 12.13 1.23a.93.93 0 0 1 .22.56c0 2.08-9 3.54-9 3.54s9.32-1.56 10.88.82-9 4.91-9 4.91 9.67-2.45 10.32-.49-9.18 6.56-9.18 6.56 8.1-2.79 9.21-1-11.26 10.66-15.6 12.79-8.68 4.23-8.68 4.23l-6.56 8.55z" fill="#ff59cf"/><path d="m449.36 98.33c-1.36 1.09-.85 1.75-2.84 5.68-2.47 4.9-4.92 7.18-4 8.52a1.88 1.88 0 0 0 1.27.67c3.69.71 7.61-5.85 7.77-6.13 0 0-5.31 7.1-3.29 9.26s7-5.67 7-5.67-4.33 6.72-2.39 7.91 6.13-4.48 6.13-4.48-4 7.85-1.35 7.17 6.26-6.27 6.26-6.27l12.56 6.72a58.45 58.45 0 0 0 -5.08-12.84c-3.19-5.92-5.49-7.7-6.72-8.52a17.32 17.32 0 0 0 -5.9-2.46c-2.62-.63-6.78-1.67-9.42.44z" fill="#ff59cf"/><path d="m341.54 161 6.72-3.81 9.74 21.64-4 8.29a41 41 0 0 1 -12.46-26.12z" fill="#f7e00b"/><g fill="#570b7f"><path d="m449.91 109.89a.42.42 0 0 1 -.24-.07.49.49 0 0 1 -.19-.68s2.93-5.13 3.7-8.12a.51.51 0 0 1 .61-.36.5.5 0 0 1 .36.61c-.8 3.12-3.68 8.16-3.8 8.37a.5.5 0 0 1 -.44.25z"/><path d="m454.23 112.65a.47.47 0 0 1 -.25-.07.49.49 0 0 1 -.18-.68 75.14 75.14 0 0 0 4.38-9 .5.5 0 0 1 .94.34 76.14 76.14 0 0 1 -4.45 9.19.52.52 0 0 1 -.44.22z"/><path d="m459 114.59a.48.48 0 0 1 -.26-.07.49.49 0 0 1 -.17-.68s2.86-4.86 3.48-7.27a.5.5 0 0 1 .61-.36.51.51 0 0 1 .36.61c-.66 2.55-3.47 7.33-3.59 7.53a.5.5 0 0 1 -.43.24z"/><path d="m463.91 115.49a.51.51 0 0 1 -.28-.09.51.51 0 0 1 -.13-.69 18.78 18.78 0 0 0 1.84-3.36.5.5 0 1 1 1 .31 19.39 19.39 0 0 1 -2 3.61.52.52 0 0 1 -.43.22z"/><path d="m366.31 145.73a.51.51 0 0 1 -.5-.42.5.5 0 0 1 .42-.57l5.92-.91a.5.5 0 0 1 .57.41.52.52 0 0 1 -.42.58l-5.92.91z"/><path d="m369.26 152.29a.51.51 0 0 1 -.48-.36.5.5 0 0 1 .34-.62l5.8-1.68a.5.5 0 0 1 .62.34.51.51 0 0 1 -.34.62l-5.8 1.68z"/><path d="m371.21 158.19a.5.5 0 0 1 -.19-1l4.57-1.86a.51.51 0 0 1 .66.28.5.5 0 0 1 -.28.65l-4.58 1.86a.39.39 0 0 1 -.18.07z"/><path d="m332.92 227.38a.49.49 0 0 1 -.42-.23.5.5 0 0 1 .15-.69c6.69-4.3 12.45-11.55 16.64-21a45.91 45.91 0 0 0 4.22-18.36.5.5 0 0 1 .48-.52.5.5 0 0 1 .52.48c0 .35.27 8.54-4.3 18.8-4.28 9.6-10.17 17-17 21.4a.53.53 0 0 1 -.29.12z"/><path d="m319.48 182a.57.57 0 0 1 -.28-.08.51.51 0 0 1 -.14-.7c2.51-3.76 7-8.37 13.37-13.7 4.72-4 8.77-6.87 8.81-6.89a.5.5 0 1 1 .59.81c-.16.11-16.08 11.54-21.94 20.34a.49.49 0 0 1 -.41.22z"/><path d="m344.87 156.33h-.15a.5.5 0 0 1 -.33-.62c1.88-6.09 2.47-16 1.72-28.68-.57-9.6-1.72-17.46-1.73-17.54a.5.5 0 0 1 1-.14c0 .08 1.16 8 1.74 17.62.77 13 .18 22.74-1.76 29a.5.5 0 0 1 -.49.36z"/><path d="m424.79 129.23a.5.5 0 0 1 -.5-.46c-1-12.74-8.85-26.69-8.93-26.83a.5.5 0 0 1 .87-.49c.08.14 8 14.29 9.06 27.24a.5.5 0 0 1 -.46.54z"/><path d="m434.35 208.85a.49.49 0 0 1 -.49-.41l-3.34-19.29a.51.51 0 0 1 .41-.58.51.51 0 0 1 .58.41l3.33 19.29a.48.48 0 0 1 -.41.57z"/><path d="m387.06 276.18a.48.48 0 0 1 -.47-.35l-4.1-12.8a.49.49 0 0 1 .32-.63.5.5 0 0 1 .63.32l4.1 12.81a.51.51 0 0 1 -.32.63z"/><path d="m332.92 279.51a.5.5 0 0 1 -.26-.93c7.18-4.46 10.39-9.46 11.82-12.87a15.88 15.88 0 0 0 1.39-6.39.5.5 0 0 1 .46-.53.49.49 0 0 1 .53.46 16.29 16.29 0 0 1 -1.43 6.78c-1.48 3.56-4.8 8.78-12.25 13.4a.5.5 0 0 1 -.26.08z"/><path d="m436.89 274.89h-.1c-4.47-.93-8.68-4.12-12.19-9.22a37.16 37.16 0 0 1 -4-7.45.52.52 0 0 1 .3-.65.5.5 0 0 1 .64.3c.05.14 5.22 13.9 15.43 16a.5.5 0 0 1 .39.59.51.51 0 0 1 -.47.43z"/></g><path d="m419.46 63.15s-3.78 2.68-1 5.3 4 10.62 4 10.62 3.91-3.38 2.37-9.77-5.37-6.15-5.37-6.15z" fill="#00e4e0"/><path d="m356 88s1.75 3.76 5.23 5-2.69 5.8-6.67 2.33l-4-3.48a3.64 3.64 0 0 1 5.44-3.85z" fill="#00e4e0"/><path d="m417.43 128.28s-.82 4.13 1.66 6a4.18 4.18 0 0 1 1.21 4.87s3.91-2.48 1.64-7.66-1.64-6.77-1.64-6.77z" fill="#00e4e0"/><path d="m407.6 175.94s-3.69 6.37 0 10.35 0 7 0 7h5.19s3.7-5.46 0-9.55a29.63 29.63 0 0 1 -5.19-7.8z" fill="#00e4e0"/><path d="m460.76 159.62s4.24 7.62 9.24 6.38 4.8-3.11 4.8-3.11-6.86-.58-9.38-3.25a2.91 2.91 0 0 0 -4.66-.02z" fill="#00e4e0"/><path d="m385.55 165.06h-.14a1.5 1.5 0 0 1 -1.35-1.35l-2-20a1.5 1.5 0 0 1 1.34-1.64 1.52 1.52 0 0 1 1.65 1.34l1.26 12.55 1.77-5.83a1.49 1.49 0 0 1 2.87 0l1.56 5.5 1.15-10.07a1.5 1.5 0 1 1 3 .34l-2 17.63a1.5 1.5 0 0 1 -2.94.24l-2.24-7.89-2.48 8.12a1.49 1.49 0 0 1 -1.45 1.06z" fill="#8f00cd"/><path d="m405.65 168.44a1.24 1.24 0 0 1 -.33 0l-7.11-1.59a1.51 1.51 0 0 1 -1.17-1.56l1.18-18.57a1.48 1.48 0 0 1 .63-1.13 1.52 1.52 0 0 1 1.29-.21l7.07 2.1a1.5 1.5 0 1 1 -.85 2.87l-5.27-1.56-1 15.42 5.85 1.31a1.5 1.5 0 0 1 -.32 3z" fill="#8f00cd"/><path d="m405.14 158.08a1.52 1.52 0 0 1 -.42-.06l-5.93-1.71a1.5 1.5 0 1 1 .83-2.88l5.93 1.71a1.5 1.5 0 0 1 -.41 2.94z" fill="#8f00cd"/><path d="m420.24 171.51h-.1l-8.36-.52a1.51 1.51 0 0 1 -1.4-1.46l-.53-20.84a1.5 1.5 0 1 1 3-.07l.49 19.46 7 .44a1.5 1.5 0 0 1 -.09 3z" fill="#8f00cd"/><path d="m438.68 162.16a3.91 3.91 0 0 1 -2-.56c-1.81-1.07-3.45-3.67-5-7.95a65.29 65.29 0 0 1 -2.49-8.78 6.08 6.08 0 0 1 .73-4.72 5.86 5.86 0 0 1 3.48-2.34h.18c3.32-.24 4.82 3.23 6.42 6.9.47 1.09 1 2.22 1.52 3.33.8 1.58 3.28 7 1.64 10.92a5.32 5.32 0 0 1 -3.43 3.06 3.49 3.49 0 0 1 -1.05.14zm-4.78-21.38c-.67.18-2.29.88-1.76 3.5 1.07 5.25 3.67 13.3 6.1 14.73a.68.68 0 0 0 .61.13 2.3 2.3 0 0 0 1.55-1.37c.75-1.75.14-5.05-1.55-8.4-.6-1.18-1.11-2.35-1.6-3.49-1.08-2.48-2.19-5.05-3.35-5.1z" fill="#8f00cd"/><path d="m445.79 152.07a1.49 1.49 0 0 1 -1.36-.89l-7.51-16.67a1.5 1.5 0 0 1 2.22-1.85l5.06 3.49-1.49-6.73a1.5 1.5 0 0 1 2.55-1.36l11.88 12.36a1.5 1.5 0 0 1 -2.14 2.08l-8.2-8.5 1.15 5.24a1.49 1.49 0 0 1 -.62 1.57 1.51 1.51 0 0 1 -1.69 0l-3.78-2.6 5.3 11.76a1.51 1.51 0 0 1 -1.37 2.12z" fill="#8f00cd"/><path d="m460 139.61a1.49 1.49 0 0 1 -1.07-.45l-11.93-12.16a1.48 1.48 0 0 1 -.16-1.89l4.1-6a1.5 1.5 0 1 1 2.47 1.7l-3.4 4.93 9.78 10 3.81-5.16a1.5 1.5 0 1 1 2.42 1.78l-4.86 6.64a1.47 1.47 0 0 1 -1.1.61z" fill="#8f00cd"/><path d="m454 133.46a1.49 1.49 0 0 1 -1.2-2.46l4.32-5.22a1.5 1.5 0 0 1 2.31 1.92l-4.32 5.21a1.47 1.47 0 0 1 -1.11.55z" fill="#8f00cd"/><path d="m425.68 169.69c-1.42 0-3.32-.79-4.85-4.21-2.23-4.95-3.28-15.64-.29-18.48a4.14 4.14 0 0 1 3.6-1.27c2.51.41 4.08 3.2 4.25 3.52a1.5 1.5 0 0 1 -2.64 1.42c-.32-.59-1.26-1.85-2.09-2-.11 0-.47-.07-1.05.48-.42.4-1 2.4-.89 6.06a26.51 26.51 0 0 0 1.84 9c.71 1.58 1.53 2.5 2.2 2.44a3.55 3.55 0 0 0 2.76-1.37 6.18 6.18 0 0 0 .66-4.55 1.5 1.5 0 1 1 2.92-.69 9 9 0 0 1 -1.15 7 6.52 6.52 0 0 1 -4.94 2.6z" fill="#8f00cd"/><path d="m202.13 43.2h16.19v68.22h-16.19z" fill="#00e4e0" transform="matrix(.726 .687 -.687 .726 110.68 -123.35)"/><path d="m164.18 161.83a12 12 0 0 1 -3.91-.74 1 1 0 1 1 .65-1.89c2.7.94 4.75.83 6.27-.31 4.5-3.39 3.87-15.35 3.45-23.27 0-.49 0-1-.08-1.44-.38-7.43 6-19 9.88-25.29 5-8.18 11.09-16 13.22-17.07a1.33 1.33 0 0 1 1.52.08 1 1 0 0 1 -.73 1.77c-1.34.81-6.66 7.13-12.17 16-6.43 10.41-10 19.3-9.72 24.38 0 .47.05.94.07 1.43.47 8.84 1.11 21-4.24 25a6.79 6.79 0 0 1 -4.21 1.35z" fill="#00e4e0"/><path d="m208.13 95.9s-3-13.19-.79-14.64 3.88 6.74 3.88 6.74-.85-9.46 1.39-11.15 2.2 6.47 2.2 6.47 4.79-8.51 7.1-7.54-11.41 25-11.41 25-3.91 0-2.37-4.88z" fill="#ff83df"/><path d="m150.91 132.23a33.67 33.67 0 0 1 10.22-13.23c4.19-3.16 5.54-2.35 11.05-6.67 2-1.57 4.59-3.84 5.78-3.09.53.34.57 1.15.6 1.7.14 3.55-3.36 6.37-4.29 7.07 0 0 6.38-3.8 7.57-2s-1.09 4.34-1.09 4.34 4.57 1 1.44 4.38c0 0 3.74 1.84.05 4.51a2.78 2.78 0 0 1 1.74 1.61c.23.78 0 1.86-1.74 3.64-3.16 3.3-9.15 9.56-15 7.17-3.18-1.29-6-5-5.77-8.67a7.46 7.46 0 0 1 .79-2.88z" fill="#ff83df"/><path d="m175.07 123.7a.5.5 0 0 1 -.12-1 19.33 19.33 0 0 0 5.51-2.71.5.5 0 0 1 .59.81 19.9 19.9 0 0 1 -5.85 2.87z" fill="#570b7f"/><path d="m176 128.68a.51.51 0 0 1 -.48-.35.5.5 0 0 1 .32-.63 31.79 31.79 0 0 0 6.09-3.32.51.51 0 0 1 .7.12.5.5 0 0 1 -.13.7 31.4 31.4 0 0 1 -6.35 3.45z" fill="#570b7f"/><path d="m176.86 133.26a.5.5 0 0 1 -.15-1 16.4 16.4 0 0 0 5.18-3.34.5.5 0 0 1 .71 0 .49.49 0 0 1 0 .7 17.18 17.18 0 0 1 -5.57 3.58.45.45 0 0 1 -.17.06z" fill="#570b7f"/><path d="m166.21 120.91a.5.5 0 0 1 -.19-1 78.74 78.74 0 0 1 8.14-2.42.51.51 0 0 1 .6.37.49.49 0 0 1 -.37.6 80.94 80.94 0 0 0 -8 2.37.43.43 0 0 1 -.18.08z" fill="#570b7f"/><path d="m215.6 90.38h-.09a.51.51 0 0 1 -.4-.59c.47-2.4-.77-6.24-.78-6.28a.5.5 0 1 1 .95-.31c.06.17 1.33 4.13.81 6.78a.49.49 0 0 1 -.49.4z" fill="#570b7f"/><path d="m212 94.53h-.11a.5.5 0 0 1 -.38-.6c.46-2-.77-5.69-.78-5.73a.5.5 0 1 1 .94-.32c.06.16 1.34 4 .81 6.27a.49.49 0 0 1 -.48.38z" fill="#570b7f"/><path d="m206.94 99.65a.5.5 0 0 1 -.49-.4 19.77 19.77 0 0 1 .43-7.27.5.5 0 0 1 .61-.36.48.48 0 0 1 .36.6 19.2 19.2 0 0 0 -.42 6.83.51.51 0 0 1 -.39.59z" fill="#570b7f"/><path d="m287.77 26s-2.69-.95-3 1.37-3.93 5.74-3.93 5.74a6.07 6.07 0 0 0 5.74-2.26c2.64-2.99 1.19-4.85 1.19-4.85z" fill="#00e4e0"/><path d="m288.45 81.47s.58-2.79-1.76-2.8-6.21-3.12-6.21-3.12a6.06 6.06 0 0 0 3 5.38c3.37 2.23 4.97.54 4.97.54z" fill="#ffc700"/><path d="m244.42 28.31s-3.36 2.43-3.94 6.08-6.21-1.55-3.54-6.11l2.67-4.56a3.64 3.64 0 0 1 4.81 4.59z" fill="#8f00cd"/><path d="m287.21 55.21s-2.95-3-5.91-2a4.19 4.19 0 0 1 -4.71-1.74s-.15 4.62 5.4 5.67 6.53 2.46 6.53 2.46z" fill="#ffc700"/><path d="m248.55 48s4.94 3.3 8.34.53 5.59.37 5.59.37l.27-4.18s-4.2-3.26-7.68-.5a23.85 23.85 0 0 1 -6.52 3.78z" fill="#00e4e0"/><path d="m259.81 29.87s5.08-1.65 5-5.59 3.38-3.75 3.38-3.75l-2.77-2.53s-4.65 1.16-4.64 5.15a21.51 21.51 0 0 1 -.97 6.72z" fill="#ffc700"/><path d="m304.4 43.83s2.94 4.46 6.72 3.36 4.52 2.26 4.52 2.26l1.68-3.37s-2.32-4.17-6.19-3.08a21.58 21.58 0 0 1 -6.73.83z" fill="#8f00cd"/><path d="m251.85 65.28s2 8.5 7.14 8.63 5.47-1.68 5.47-1.68-6.44-2.43-8.14-5.68a2.91 2.91 0 0 0 -4.47-1.27z" fill="#8f00cd"/></g></svg>