<svg xmlns="http://www.w3.org/2000/svg" version="1.1" xmlns:xlink="http://www.w3.org/1999/xlink" width="512" height="512" x="0" y="0" viewBox="0 0 150 150" style="enable-background:new 0 0 512 512" xml:space="preserve" class=""><g><path d="M23.313 130.256H126.69c8.347 0 15.137-6.791 15.137-15.137V34.881c0-8.347-6.79-15.137-15.137-15.137H23.313c-8.348 0-15.14 6.791-15.14 15.137v80.238c0 8.347 6.792 15.137 15.14 15.137zm-7.14-95.375c0-3.869 3.27-7.137 7.14-7.137H126.69c3.868 0 7.137 3.269 7.137 7.137v80.238a7.144 7.144 0 0 1-7.137 7.137H23.313c-3.87 0-7.14-3.269-7.14-7.137z" fill="#0e89d0" opacity="1" data-original="#000000" class=""></path><path d="M62.675 76.621c12.222 0 22.165-9.944 22.165-22.166 0-12.163-9.943-22.059-22.165-22.059-12.164 0-22.061 9.896-22.061 22.059 0 12.222 9.897 22.166 22.061 22.166zm0-36.225c7.811 0 14.165 6.307 14.165 14.059 0 7.811-6.354 14.166-14.165 14.166-7.753 0-14.061-6.355-14.061-14.166 0-7.752 6.308-14.059 14.061-14.059zM31.103 113.496c.74 0 1.489-.206 2.159-.636l26.49-17.192c1.724-1.109 4.227-1.109 5.933-.011l21.932 14.261 4.433 2.918a4 4 0 1 0 4.398-6.682l-26.42-17.216c-4.366-2.808-10.234-2.808-14.62.011l-21.932 14.263-4.541 2.918a4 4 0 0 0 2.168 7.366zM96.736 52.398h23.251a4 4 0 0 0 0-8H96.736a4 4 0 0 0 0 8zM96.736 64.618h15.788a4 4 0 0 0 0-8H96.736a4 4 0 0 0 0 8z" fill="#0e89d0" opacity="1" data-original="#000000" class=""></path></g></svg>