<svg id="Layer_1" enable-background="new 0 0 3000 3000" height="512" viewBox="0 0 3000 3000" width="512" xmlns="http://www.w3.org/2000/svg"><g><g><path d="m2209.07 1043.34c-70.41 408.31-481.44 640.49-820.94 571.18-112.2-22.91-233.64-82.23-332.46-175.27-93.31-87.84-166.45-205.75-192.6-351.44-67.52-376.31 230.92-645.68 278.67-687.07 40.05-34.72 346.54-291.49 681.07-142.81 83.41 37.07 156.26 93.88 215.97 163.7v.01c140.54 164.36 208.39 400.77 170.29 621.7z" fill="#63c7fd"/></g><g opacity=".11"><path d="m2209.07 1043.34c-70.41 408.31-481.44 640.49-820.94 571.18-112.2-22.91-233.64-82.23-332.46-175.27 0 0 910.79-65.21 983.11-1017.6 140.54 164.35 208.39 400.76 170.29 621.69z" fill="#1099f4"/></g><g><path d="m2590.09 2492.08-47.85 109.19c-58.36 133.11-189.92 219.08-335.26 219.08h-1356.17c-157.39 0-297.13-100.61-347.1-249.81-.08-.22-.15-.44-.23-.66l-42.91-128.97c-94.57-284.17 20.97-597.11 279.32-748.59 100.14-58.71 216.75-92.37 341.21-92.37h928.35c5.18 0 10.34.06 15.51.18 52.19 1.18 102.31 8.48 149.82 21.09 363.49 96.59 575.66 505.06 415.31 870.86z" fill="#63c7fd"/></g><g opacity=".11"><path d="m2590.09 2492.08-47.85 109.19c-58.36 133.11-189.92 219.08-335.26 219.08h-1356.17c-157.39 0-297.13-100.61-347.1-249.81 22.27 9.27 615.09 252.48 1032.18 67.25 421.29-187.1 1037.81-246.5 638.88-1016.57 363.5 96.59 575.67 505.06 415.32 870.86z" fill="#1099f4"/></g><g><path d="m1489.83 1642.94c-14.39 0-28.65-.46-42.79-1.38-102.95-6.7-193.66-37.94-262.34-90.33-282.17-215.29-260.7-305.32-257.33-314.87l25.94 9.16s.1-.21.2-.64c-.2.8-16.66 82.63 247.87 284.47 64.35 49.1 149.91 78.4 247.44 84.75 95 6.18 196.96-9.43 294.87-45.15 106.12-38.71 201.72-99.1 276.49-174.64 39.79-40.2 73.52-84.54 100.25-131.79 28.26-49.94 48.89-103.52 61.31-159.23 23.02-103.21 26.51-205.64 10.37-304.46-12.92-79.09-38.37-156.12-75.65-228.93-33.25-64.93-69.95-114.43-94.88-144.52-27.07-32.67-46.51-50.17-46.7-50.35-5.66-5.06-6.14-13.76-1.08-19.42s13.75-6.15 19.41-1.09c3.28 2.93 81.16 73.27 147.2 201.8 38.76 75.44 65.25 155.29 78.73 237.33 16.84 102.53 13.3 208.72-10.55 315.63-13.02 58.37-34.62 114.48-64.22 166.79-27.93 49.36-63.14 95.66-104.64 137.59-77.6 78.41-176.71 141.04-286.61 181.13-86.94 31.74-177.12 48.15-263.29 48.15z"/></g><g><path d="m2542.46 2615.28c-2.15 0-4.33-.5-6.36-1.57-6.73-3.52-9.34-11.83-5.82-18.56 38.88-74.41 66.73-149.69 82.78-223.77 12.82-59.18 18.18-117.75 15.93-174.06-3.83-95.92-28.78-152.84-29.03-153.4-.06-.13-.13-.29-.18-.42-43.92-107.56-101.41-197.06-170.88-266.02-55.4-54.99-118.54-97.16-187.67-125.33-118-48.08-214-38.62-214.95-38.52-7.55.8-14.32-4.67-15.13-12.21-.81-7.55 4.64-14.32 12.19-15.14 4.14-.45 102.71-10.39 226.88 39.83 72.76 29.42 139.15 73.54 197.34 131.12 72.39 71.63 132.15 164.39 177.62 275.67 2.14 4.84 27.06 63.22 31.25 161.7 2.5 58.78-2.96 119.85-16.22 181.5-16.53 76.85-45.31 154.84-85.52 231.8-2.48 4.69-7.27 7.38-12.23 7.38z"/></g><g opacity=".11"><path d="m2215.52 2081.36c-.7 0-1.41-.04-2.13-.11-11.34-1.16-19.58-11.29-18.42-22.63 14.25-138.94-68.54-314.87-69.38-316.64-4.9-10.29-.52-22.6 9.77-27.49 10.29-4.9 22.6-.53 27.5 9.76.91 1.91 22.44 47.41 42.34 111.7 26.96 87.09 37.33 163.42 30.83 226.87-1.1 10.63-10.06 18.54-20.51 18.54z" fill="#1099f4"/></g><g opacity=".11"><path d="m2025.42 2346.45c-8.89 0-17.1-5.79-19.76-14.75-3.25-10.92 2.96-22.41 13.88-25.66 106.19-31.63 141.12-128.59 141.46-129.57 3.75-10.76 15.51-16.44 26.28-12.68 10.76 3.75 16.44 15.52 12.68 26.28-1.67 4.8-42.44 117.93-168.64 155.52-1.96.58-3.95.86-5.9.86z" fill="#1099f4"/></g><g opacity=".11"><path d="m1706.59 2466.48c-8.04 0-15.69-4.73-19.01-12.61-4.43-10.5.48-22.6 10.98-27.03l201.32-85.03c10.5-4.43 22.6.48 27.03 10.98s-.48 22.6-10.98 27.03l-201.32 85.03c-2.62 1.11-5.35 1.63-8.02 1.63z" fill="#1099f4"/></g><g opacity=".11"><path d="m1831.6 914.73c-3.48 0-7.01-.88-10.25-2.74-9.88-5.67-13.29-18.28-7.62-28.16 58.83-102.48 94.08-206.7 113.29-276.08 20.89-75.45 27.88-127.22 27.94-127.73 1.49-11.29 11.87-19.24 23.15-17.75 11.29 1.49 19.24 11.85 17.75 23.14-.29 2.19-7.31 54.52-28.86 132.53-19.85 71.88-56.36 179.92-117.5 286.43-3.8 6.64-10.75 10.36-17.9 10.36z" fill="#1099f4"/></g><g opacity=".11"><path d="m1536.54 1243.59c-7.6 0-14.9-4.21-18.5-11.48-5.06-10.21-.88-22.59 9.33-27.65 126.93-62.87 249.28-256.83 250.5-258.79 6.04-9.66 18.77-12.59 28.43-6.55s12.6 18.77 6.56 28.43c-1.31 2.09-32.53 51.83-80.81 110.49-65.54 79.64-128.25 134.61-186.36 163.4-2.95 1.46-6.08 2.15-9.15 2.15z" fill="#1099f4"/></g><g opacity=".11"><path d="m1351.46 1334.87c-8.75 0-16.87-5.61-19.66-14.39-3.45-10.86 2.56-22.46 13.42-25.91 28.24-8.98 78.43-29.76 92.88-47.24 7.26-8.78 20.26-10.02 29.05-2.77 8.78 7.26 10.02 20.26 2.77 29.05-12.11 14.66-34.31 28.87-67.86 43.45-23.37 10.15-43.49 16.57-44.34 16.84-2.09.66-4.19.97-6.26.97z" fill="#1099f4"/></g></g></svg>